<?xml version="1.0" encoding="UTF-8" standalone="no"?>
<svg
   class="ionicon"
   viewBox="0 0 512 512"
   version="1.1"
   id="svg4"
   sodipodi:docname="moon.svg"
   inkscape:version="1.1.2 (b8e25be833, 2022-02-05)"
   xmlns:inkscape="http://www.inkscape.org/namespaces/inkscape"
   xmlns:sodipodi="http://sodipodi.sourceforge.net/DTD/sodipodi-0.dtd"
   xmlns="http://www.w3.org/2000/svg"
   xmlns:svg="http://www.w3.org/2000/svg">
  <defs
     id="defs8" />
  <sodipodi:namedview
     id="namedview6"
     pagecolor="#505050"
     bordercolor="#eeeeee"
     borderopacity="1"
     inkscape:pageshadow="0"
     inkscape:pageopacity="0"
     inkscape:pagecheckerboard="0"
     showgrid="false"
     inkscape:zoom="1.5585938"
     inkscape:cx="255.6792"
     inkscape:cy="254.71679"
     inkscape:window-width="1708"
     inkscape:window-height="871"
     inkscape:window-x="2391"
     inkscape:window-y="80"
     inkscape:window-maximized="1"
     inkscape:current-layer="svg4" />
  <path
     d="M264 480A232 232 0 0132 248c0-94 54-178.28 137.61-214.67a16 16 0 0121.06 21.06C181.07 76.43 176 104.66 176 136c0 110.28 89.72 200 200 200 31.34 0 59.57-5.07 81.61-14.67a16 16 0 0121.06 21.06C442.28 426 358 480 264 480z"
     id="path2" />
  <path
     style="fill:#ffffff;stroke-width:0.641604"
     d="m 248.62155,479.22425 c -1.23508,-0.14274 -5.41346,-0.56576 -9.28527,-0.94005 -9.58947,-0.927 -20.08557,-2.76231 -30.81498,-5.38819 C 119.59696,451.13295 50.696622,377.04311 35.660675,287.01572 33.165676,272.07696 32.755591,266.51591 32.75843,247.65915 32.76153,227.22373 33.502014,219.04686 36.954945,201.32021 50.973778,129.35033 97.648993,68.233434 162.35798,37.116455 c 13.01101,-6.256676 18.08605,-6.231356 24.45157,0.121995 5.42918,5.418808 6.04452,10.379563 2.43371,19.620067 -6.68762,17.114477 -10.45131,33.738117 -12.54792,55.422183 -1.00355,10.37919 -1.00336,34.86027 3.4e-4,43.94988 5.19444,47.04101 24.89368,88.37968 57.79387,121.27987 41.19253,41.19252 95.9146,61.76762 155.28489,58.38597 25.33313,-1.44294 43.95188,-5.08093 63.03047,-12.31578 11.82839,-4.48548 16.19233,-4.16553 21.95664,1.60981 6.22123,6.23315 6.33013,11.34334 0.50327,23.61624 -33.3452,70.23369 -100.54438,118.16938 -180.72313,128.91656 -9.19706,1.23278 -39.63282,2.22764 -45.92014,1.501 z"
     id="path121" />
</svg>
