<?xml version="1.0" encoding="UTF-8" standalone="no"?>
<svg
   class="ionicon"
   viewBox="0 0 512 512"
   version="1.1"
   id="svg4"
   sodipodi:docname="sunny.svg"
   inkscape:version="1.1.2 (b8e25be833, 2022-02-05)"
   xmlns:inkscape="http://www.inkscape.org/namespaces/inkscape"
   xmlns:sodipodi="http://sodipodi.sourceforge.net/DTD/sodipodi-0.dtd"
   xmlns="http://www.w3.org/2000/svg"
   xmlns:svg="http://www.w3.org/2000/svg">
  <defs
     id="defs8" />
  <sodipodi:namedview
     id="namedview6"
     pagecolor="#505050"
     bordercolor="#eeeeee"
     borderopacity="1"
     inkscape:pageshadow="0"
     inkscape:pageopacity="0"
     inkscape:pagecheckerboard="0"
     showgrid="false"
     inkscape:zoom="1.5585938"
     inkscape:cx="255.6792"
     inkscape:cy="254.71679"
     inkscape:window-width="1708"
     inkscape:window-height="871"
     inkscape:window-x="2391"
     inkscape:window-y="80"
     inkscape:window-maximized="1"
     inkscape:current-layer="svg4" />
  <path
     d="M256 118a22 22 0 01-22-22V48a22 22 0 0144 0v48a22 22 0 01-22 22zM256 486a22 22 0 01-22-22v-48a22 22 0 0144 0v48a22 22 0 01-22 22zM369.14 164.86a22 22 0 01-15.56-37.55l33.94-33.94a22 22 0 0131.11 31.11l-33.94 33.94a21.93 21.93 0 01-15.55 6.44zM108.92 425.08a22 22 0 01-15.55-37.56l33.94-33.94a22 22 0 1131.11 31.11l-33.94 33.94a21.94 21.94 0 01-15.56 6.45zM464 278h-48a22 22 0 010-44h48a22 22 0 010 44zM96 278H48a22 22 0 010-44h48a22 22 0 010 44zM403.08 425.08a21.94 21.94 0 01-15.56-6.45l-33.94-33.94a22 22 0 0131.11-31.11l33.94 33.94a22 22 0 01-15.55 37.56zM142.86 164.86a21.89 21.89 0 01-15.55-6.44l-33.94-33.94a22 22 0 0131.11-31.11l33.94 33.94a22 22 0 01-15.56 37.55zM256 358a102 102 0 11102-102 102.12 102.12 0 01-102 102z"
     id="path2" />
  <path
     style="fill:#ffd42a;stroke-width:0.641604"
     d="m 246.05514,357.29758 c -23.99318,-3.00898 -44.07989,-12.44504 -60.51184,-28.42641 -15.763,-15.33077 -25.10827,-32.53913 -29.46832,-54.26292 -1.86797,-9.30708 -2.00361,-27.12085 -0.27359,-35.93156 4.25345,-21.66222 13.01791,-38.67362 27.55932,-53.49132 15.37701,-15.66917 32.96359,-25.00959 55.31598,-29.3789 8.21928,-1.60666 25.95437,-1.60184 34.64662,0.009 20.28092,3.7594 38.08361,12.81587 52.52556,26.72046 16.26884,15.66352 25.6299,32.7282 30.07261,54.82066 2.03217,10.10548 2.01611,27.08402 -0.0354,37.39565 -4.12906,20.75443 -13.24871,37.77807 -28.30205,52.8314 -14.98237,14.98238 -32.18347,24.22617 -52.4864,28.20598 -6.70665,1.31464 -23.5918,2.19112 -29.04251,1.50755 z"
     id="path65" />
  <path
     style="fill:#ffd42a;stroke-width:0.641604"
     d="m 408.89245,276.34424 c -6.73625,-2.44712 -11.73248,-7.82936 -13.76818,-14.8319 -2.75445,-9.47497 2.36273,-20.49593 11.65267,-25.09657 l 3.20802,-1.5887 28.94307,-0.18489 c 28.03515,-0.17909 29.0556,-0.14278 32.53037,1.1573 4.48683,1.67873 9.59361,6.20128 11.86481,10.50742 1.54314,2.92575 1.72843,3.96488 1.72843,9.6931 0,5.72822 -0.18529,6.76735 -1.72843,9.6931 -2.25565,4.27665 -7.38028,8.82955 -11.79936,10.48294 -3.3598,1.25706 -4.81243,1.31647 -31.56797,1.29101 -24.80192,-0.0236 -28.39513,-0.15348 -31.06343,-1.12281 z"
     id="path104" />
  <path
     style="fill:#ffd42a;stroke-width:0.641604"
     d="m 363.03506,163.68952 c -5.73476,-1.88236 -11.40675,-6.9787 -13.80764,-12.4063 -2.6851,-6.07012 -1.98702,-14.2532 1.70539,-19.99106 0.82458,-1.28136 10.26217,-11.02368 20.97243,-21.64959 22.14949,-21.975045 21.81474,-21.742821 31.34288,-21.742821 6.54606,0 10.23528,1.514845 14.77738,6.0678 4.50529,4.516055 6.02613,8.230881 6.05267,14.784331 0.0386,9.54481 0.33847,9.11598 -22.26726,31.84791 -22.31751,22.4421 -23.37003,23.23372 -31.51673,23.70449 -2.85009,0.1647 -5.59182,-0.0675 -7.25912,-0.61476 z"
     id="path143" />
  <path
     style="fill:#ffd42a;stroke-width:0.641604"
     d="m 249.45553,116.57884 c -6.73299,-2.40564 -11.45414,-7.01441 -13.79977,-13.47129 -0.96933,-2.6683 -1.09921,-6.261512 -1.12281,-31.063431 -0.0258,-27.14739 0.0174,-28.164058 1.35049,-31.726947 1.67418,-4.474629 6.02257,-9.316432 10.47979,-11.668933 2.86235,-1.510734 3.93465,-1.699883 9.63677,-1.699883 5.72822,0 6.76735,0.185293 9.6931,1.728427 4.30614,2.271202 8.82869,7.377989 10.50742,11.864815 1.30008,3.474771 1.33639,4.495219 1.1573,32.530371 l -0.18489,28.943071 -2.20327,4.06381 c -5.00597,9.23323 -16.18423,13.83349 -25.51413,10.49999 z"
     id="path182" />
  <path
     style="fill:#ffd42a;stroke-width:0.641604"
     d="m 137.90661,164.00803 c -5.40771,-1.39879 -8.04818,-3.62902 -27.73533,-23.42611 -22.566754,-22.69278 -22.271531,-22.27085 -22.271531,-31.83004 0,-6.54398 1.51237,-10.228901 6.0678,-14.784331 4.55543,-4.55543 8.240351,-6.0678 14.784331,-6.0678 9.52814,0 9.19339,-0.232224 31.34288,21.742821 10.71026,10.62591 20.14786,20.36823 20.97243,21.64959 3.69899,5.74807 4.39045,13.92102 1.69359,20.01772 -1.80648,4.08386 -6.65942,9.06686 -10.80596,11.09557 -3.71379,1.81699 -10.31017,2.56949 -14.04821,1.60258 z"
     id="path221" />
  <path
     style="fill:#ffd42a;stroke-width:0.641604"
     d="m 40.294012,276.15752 c -4.280081,-1.66194 -9.413248,-6.28573 -11.617229,-10.46442 -1.543134,-2.92575 -1.728427,-3.96488 -1.728427,-9.6931 0,-5.70212 0.189149,-6.77442 1.699883,-9.63677 2.368011,-4.48661 7.191705,-8.80464 11.734377,-10.50427 3.678263,-1.37622 4.271798,-1.39831 32.689353,-1.21678 l 28.943071,0.18489 3.20802,1.5887 c 4.29962,2.1293 8.39107,6.3456 10.47676,10.7965 1.4126,3.0145 1.7111,4.55426 1.70361,8.78773 -0.0149,8.44539 -3.89213,14.94002 -11.32458,18.96966 l -4.06381,2.20327 -29.192985,0.13979 c -27.933924,0.13376 -29.33682,0.0839 -32.528043,-1.1552 z"
     id="path260" />
  <path
     style="fill:#ffd42a;stroke-width:0.641604"
     d="m 105.37159,424.38102 c -14.390457,-2.34514 -22.381518,-18.64647 -15.432119,-31.48067 1.027522,-1.89764 8.822902,-10.14623 21.598579,-22.85429 18.39223,-18.29487 20.2877,-19.9942 23.70406,-21.25122 10.50633,-3.8657 22.34276,0.75582 27.16163,10.60524 2.48846,5.08624 2.83149,11.92195 0.86421,17.22147 -1.33017,3.58324 -2.80508,5.23297 -21.31401,23.8404 -12.69074,12.75826 -20.95924,20.57306 -22.85429,21.60025 -2.622,1.42123 -4.08737,1.83109 -9.38536,2.6251 -0.70577,0.10577 -2.65998,-0.0321 -4.3427,-0.30628 z"
     id="path299" />
  <path
     style="fill:#ffd42a;stroke-width:0.641604"
     d="m 249.90476,484.80998 c -6.21728,-2.03964 -11.87757,-7.39747 -14.10528,-13.35158 -1.30008,-3.47477 -1.33639,-4.49522 -1.1573,-32.53037 l 0.18489,-28.94307 1.5887,-3.20802 c 2.1293,-4.29963 6.3456,-8.39107 10.7965,-10.47676 5.21381,-2.4432 12.36165,-2.4432 17.57546,0 4.4509,2.08569 8.6672,6.17713 10.7965,10.47676 l 1.5887,3.20802 0.18489,28.94307 c 0.17909,28.03515 0.14278,29.0556 -1.1573,32.53037 -1.68959,4.51584 -6.2301,9.62293 -10.50742,11.81857 -2.63266,1.35141 -4.34947,1.71926 -8.73069,1.8707 -2.9995,0.10369 -6.17544,-0.0483 -7.05765,-0.33769 z"
     id="path338" />
  <path
     style="fill:#ffd42a;stroke-width:0.641604"
     d="m 399.47206,424.30475 c -1.9004,-0.29686 -4.81589,-1.28029 -6.47888,-2.1854 -4.0988,-2.23084 -41.06517,-39.33598 -42.9574,-43.11866 -4.20791,-8.41183 -2.59773,-18.14168 4.11275,-24.85216 6.71055,-6.71055 16.4408,-8.32074 24.85216,-4.1126 3.35353,1.67774 40.25847,38.13419 42.60826,42.09046 2.20372,3.71033 2.86999,6.27852 2.88532,11.12173 0.0421,13.30746 -11.6489,23.14565 -25.02221,21.05663 z"
     id="path377" />
</svg>
